<?xml version="1.0" encoding="UTF-8" standalone="no"?>
<!DOCTYPE svg PUBLIC "-//W3C//DTD SVG 1.1//EN" "http://www.w3.org/Graphics/SVG/1.1/DTD/svg11.dtd">
<svg xmlns="http://www.w3.org/2000/svg" version="1.1" viewBox="0.00 0.00 576.00 433.00">
<path fill="#000000" d="
  M 432.58 160.91
  A 0.49 0.49 0.0 0 0 433.04 161.28
  L 451.76 161.46
  A 1.26 1.26 0.0 0 1 452.97 163.02
  L 447.79 184.55
  Q 447.53 185.60 446.46 185.61
  L 427.22 185.83
  A 1.12 1.12 0.0 0 0 426.14 186.71
  Q 423.22 199.92 420.20 213.49
  C 419.64 216.01 419.60 220.85 422.12 222.80
  Q 424.80 224.88 428.64 224.91
  Q 469.04 225.19 493.90 224.67
  Q 498.12 224.58 500.89 220.76
  Q 501.20 220.33 501.05 219.81
  Q 499.69 215.08 494.97 215.13
  C 484.14 215.26 472.06 215.89 462.22 211.38
  Q 455.24 208.17 453.61 200.04
  C 451.12 187.63 454.07 174.48 464.80 167.44
  Q 473.50 161.73 484.56 161.78
  Q 513.32 161.90 546.21 161.56
  A 0.54 0.53 9.8 0 1 546.72 162.28
  L 538.84 183.00
  A 0.91 0.90 10.2 0 1 537.99 183.58
  Q 513.09 183.34 485.63 183.76
  C 482.93 183.80 478.35 187.83 481.43 190.45
  C 482.84 191.64 484.08 192.53 486.04 192.51
  C 494.33 192.41 502.53 192.28 510.61 193.54
  C 520.77 195.14 528.86 200.58 529.38 211.79
  Q 529.86 222.34 525.08 231.54
  C 517.76 245.60 500.42 247.83 486.20 247.69
  Q 447.63 247.33 409.55 247.74
  C 398.23 247.86 389.73 240.13 389.98 228.47
  Q 390.09 223.07 391.71 216.22
  Q 395.36 200.74 398.99 186.62
  Q 401.62 176.42 403.49 167.07
  Q 406.32 152.85 410.42 137.73
  A 1.66 1.66 0.0 0 1 412.02 136.50
  L 437.20 136.51
  A 0.87 0.87 0.0 0 1 438.05 137.59
  Q 435.37 148.43 432.60 159.79
  Q 432.45 160.39 432.58 160.91
  Z"
/>
<path fill="#000000" d="
  M 232.02 209.79
  C 234.21 191.24 246.06 175.73 262.42 166.72
  C 276.80 158.80 295.07 156.48 310.61 162.18
  Q 328.13 168.61 331.61 185.86
  Q 334.26 199.01 329.44 212.45
  C 323.23 229.77 311.38 242.72 293.49 247.93
  C 281.85 251.32 266.97 252.11 255.58 247.83
  C 239.10 241.64 229.98 227.08 232.02 209.79
  Z
  M 268.2785 226.6051
  A 26.96 21.77 124.4 0 0 301.4727 216.6593
  A 26.96 21.77 124.4 0 0 298.7415 182.1149
  A 26.96 21.77 124.4 0 0 265.5473 192.0607
  A 26.96 21.77 124.4 0 0 268.2785 226.6051
  Z"
/>
<path fill="#000000" d="
  M 364.39 204.15
  Q 359.12 225.00 354.61 245.58
  A 2.44 2.43 5.7 0 1 352.27 247.49
  L 328.55 247.80
  A 1.17 1.16 -83.9 0 1 327.40 246.37
  Q 333.95 218.15 341.55 188.38
  Q 343.76 179.75 349.44 173.23
  C 355.56 166.21 363.50 163.10 372.47 162.10
  Q 382.94 160.93 395.77 161.21
  A 0.95 0.95 0.0 0 1 396.67 162.39
  L 391.12 184.90
  A 1.67 1.67 0.0 0 1 389.40 186.16
  C 381.76 185.76 373.02 186.80 368.39 193.33
  Q 366.42 196.11 364.39 204.15
  Z"
/>
<path fill="#000000" d="
  M 158.44 248.16
  Q 158.12 248.66 157.98 249.24
  Q 152.82 270.77 147.01 295.19
  A 1.31 1.31 0.0 0 1 145.72 296.20
  L 120.75 296.01
  Q 119.46 296.00 119.75 294.75
  L 143.63 193.86
  A 2.00 1.99 6.5 0 1 145.58 192.32
  Q 157.28 192.31 169.75 192.35
  Q 170.42 192.35 170.78 192.52
  A 0.96 0.84 20.7 0 1 171.31 193.52
  L 164.35 222.22
  A 0.89 0.89 0.0 0 0 165.26 223.32
  Q 171.68 223.02 178.72 223.32
  C 188.69 223.74 196.31 221.04 201.85 212.84
  C 205.67 207.18 207.61 199.40 204.92 192.96
  C 200.05 181.26 187.29 183.77 177.02 183.76
  Q 137.86 183.74 98.59 183.71
  Q 90.46 183.71 82.51 185.55
  Q 80.41 186.04 78.81 187.48
  A 1.38 1.37 64.4 0 0 78.38 188.72
  Q 78.87 191.62 81.69 192.16
  C 88.27 193.41 95.64 192.77 102.40 192.78
  C 114.09 192.80 125.20 197.82 126.55 210.46
  C 128.21 226.07 121.87 242.49 105.07 246.17
  Q 95.93 248.18 86.14 247.96
  Q 54.59 247.26 29.98 247.98
  A 0.59 0.59 0.0 0 1 29.41 247.18
  L 37.42 226.20
  A 2.26 2.25 10.7 0 1 39.56 224.75
  Q 62.91 225.05 87.75 224.93
  Q 91.93 224.91 95.63 223.05
  C 98.29 221.71 99.48 218.66 96.61 216.89
  Q 94.98 215.89 93.23 215.50
  C 85.95 213.92 78.64 215.48 71.34 214.92
  C 59.26 213.99 50.93 207.29 49.36 194.53
  C 47.87 182.43 55.29 170.32 66.46 165.55
  Q 75.94 161.50 89.15 161.50
  Q 164.23 161.55 198.29 161.94
  Q 204.31 162.01 211.88 164.89
  C 222.20 168.82 228.78 177.92 229.37 189.10
  C 230.65 213.53 218.10 239.25 192.90 245.92
  Q 186.23 247.68 176.71 247.68
  Q 168.25 247.68 159.77 247.45
  A 1.51 1.50 -73.1 0 0 158.44 248.16
  Z"
/>
</svg>
